<svg xmlns="http://www.w3.org/2000/svg" width="200" height="143" viewBox="0 0 200 143" fill="none"><g clip-path="url(#clip0_289_6787)"><path d="M94.7069 12.6667C94.7069 13.7917 94.3319 14.7501 93.5725 15.5371C92.7206 16.4028 91.5817 16.838 90.1464 16.838H82.3588C83.1089 16.7084 83.4885 15.9399 83.4885 14.5232V3.04635C83.4885 1.68061 83.095 0.92598 82.3125 0.777832H89.475C90.9057 0.777832 92.0215 1.18061 92.8271 1.98617C93.5355 2.6945 93.892 3.5695 93.892 4.61579C93.892 5.53246 93.6096 6.35654 93.0494 7.08802C92.4891 7.8195 91.7715 8.26394 90.9057 8.42598C92.0632 8.55561 92.9892 9.0232 93.679 9.83802C94.3689 10.6482 94.7161 11.5926 94.7161 12.6714L94.7069 12.6667ZM91.8409 4.75931C91.8409 3.92598 91.5539 3.25005 90.9705 2.73617C90.3918 2.22228 89.6834 1.96765 88.8454 1.96765H85.4423V7.93987H89.012C89.8501 7.93987 90.5307 7.65283 91.0539 7.08339C91.577 6.51394 91.8363 5.74079 91.8363 4.75931H91.8409ZM92.6327 12.5741C92.6327 11.5464 92.3225 10.713 91.702 10.0788C91.0816 9.4445 90.2436 9.12505 89.1787 9.12505H85.4423V15.6343H89.4241C91.5631 15.6343 92.6327 14.6158 92.6327 12.5695V12.5741Z" fill="white"></path><path d="M103.653 7.91681C103.185 7.20848 102.593 6.85663 101.87 6.85663C101.097 6.85663 100.435 7.28255 99.8704 8.1344C99.3101 8.98626 99.0277 10.065 99.0277 11.3659V14.7177C99.0277 16.0187 99.3611 16.727 100.028 16.8427H96.2405C96.935 16.7316 97.2822 16.0233 97.2822 14.7177V8.27792C97.2822 7.6807 97.2359 7.26403 97.1387 7.02329C96.9951 6.60663 96.6849 6.39829 96.2173 6.39829H95.9766L99.0277 5.07422V8.11126C99.2962 7.33811 99.75 6.66218 100.384 6.08348C101.083 5.45848 101.824 5.14366 102.602 5.14366C102.949 5.14366 103.301 5.23163 103.648 5.40755V7.92144L103.653 7.91681Z" fill="white"></path><path d="M108.964 16.8378H105.006C105.728 16.7267 106.094 16.0276 106.094 14.7406V8.34708C106.094 7.06004 105.714 6.41652 104.959 6.41652H104.695L107.876 5.0693V14.7406C107.876 16.0276 108.237 16.7267 108.964 16.8378ZM108.154 1.85634C108.154 2.22671 108.034 2.54152 107.788 2.80078C107.547 3.05541 107.219 3.18504 106.797 3.18504C106.376 3.18504 106.066 3.05541 105.816 2.80078C105.566 2.54152 105.441 2.23134 105.441 1.85634C105.441 1.48134 105.561 1.17578 105.806 0.925781C106.047 0.675781 106.381 0.550781 106.797 0.550781C107.214 0.550781 107.543 0.675781 107.788 0.925781C108.034 1.17578 108.154 1.48597 108.154 1.85634Z" fill="white"></path><path d="M117.032 14.4768C116.629 16.2916 115.657 17.1991 114.11 17.1991C113.356 17.1991 112.745 16.9259 112.286 16.3796C111.828 15.8333 111.596 15.0787 111.596 14.1111V6.70831H110.105L113.342 2.86572V5.52313H116.643V6.70831H113.342V13.6065C113.342 15.0694 113.833 15.8009 114.814 15.8009C115.601 15.8009 116.342 15.3565 117.032 14.4722V14.4768Z" fill="white"></path><path d="M122.12 16.8378H118.166C118.888 16.7267 119.254 16.0276 119.254 14.7406V8.34708C119.254 7.06004 118.874 6.41652 118.119 6.41652H117.855L121.041 5.0693V14.7406C121.041 16.0276 121.402 16.7267 122.129 16.8378H122.12ZM121.309 1.85634C121.309 2.22671 121.189 2.54152 120.948 2.80078C120.708 3.05541 120.379 3.18504 119.957 3.18504C119.536 3.18504 119.231 3.05541 118.981 2.80078C118.731 2.54152 118.606 2.23134 118.606 1.85634C118.606 1.48134 118.726 1.17578 118.967 0.925781C119.207 0.675781 119.541 0.550781 119.957 0.550781C120.374 0.550781 120.708 0.675781 120.948 0.925781C121.189 1.17578 121.309 1.48597 121.309 1.85634Z" fill="white"></path><path d="M131.026 13.8936C131.026 14.9074 130.665 15.7084 129.952 16.3056C129.234 16.9028 128.252 17.1991 126.998 17.1991C125.646 17.1991 124.576 16.8843 123.789 16.2593V12.9584C124.21 15.0463 125.326 16.088 127.146 16.088C127.725 16.088 128.225 15.9676 128.646 15.7269C129.16 15.4213 129.419 14.9815 129.419 14.4028C129.419 13.6945 128.947 13.051 127.993 12.4723C127.109 11.9723 126.22 11.4769 125.335 10.9769C124.386 10.2871 123.909 9.43985 123.909 8.44448C123.909 7.44911 124.257 6.68985 124.947 6.06948C125.641 5.44911 126.549 5.14355 127.674 5.14355C128.701 5.14355 129.614 5.40281 130.401 5.9167V8.86115C130.239 7.99078 129.868 7.31485 129.289 6.83337C128.776 6.43059 128.188 6.22689 127.525 6.22689C126.947 6.22689 126.465 6.37967 126.076 6.68522C125.641 7.0093 125.423 7.4167 125.423 7.9167C125.423 8.4167 125.581 8.81948 125.896 9.12504C126.211 9.43059 126.863 9.84726 127.863 10.3797C128.975 10.9584 129.729 11.4306 130.132 11.801C130.725 12.3658 131.026 13.0649 131.026 13.8982V13.8936Z" fill="white"></path><path d="M143.206 16.838H139.516C140.113 16.7269 140.409 16.0417 140.409 14.787V9.33333C140.409 7.4537 139.692 6.50926 138.256 6.50926C137.465 6.50926 136.733 6.81944 136.043 7.43981C135.358 8.06018 135.015 8.78704 135.015 9.625V14.787C135.015 16.0417 135.349 16.7269 136.015 16.838H132.228C132.918 16.7269 133.261 16.0278 133.261 14.7407V3.66667C133.261 2.75 133.145 2.12037 132.923 1.78704C132.747 1.51389 132.441 1.375 132.011 1.375H131.793L135.02 0V7.28704C135.39 6.70833 135.974 6.2037 136.77 5.77778C137.567 5.35185 138.326 5.13889 139.053 5.13889C140.016 5.13889 140.775 5.45833 141.335 6.09259C141.891 6.72685 142.169 7.64815 142.169 8.85648V14.7454C142.169 16.0324 142.516 16.7315 143.21 16.8426L143.206 16.838Z" fill="white"></path><path d="M95.4802 36.2178C94.1144 37.778 92.3457 38.5557 90.1743 38.5557C87.6463 38.5557 85.6647 37.7178 84.2156 36.0465C82.9145 34.5511 82.2617 32.6946 82.2617 30.4724C82.2617 28.1252 82.9701 26.1298 84.3869 24.4909C85.9796 22.6437 88.1094 21.7178 90.7808 21.7178C92.4059 21.7178 93.8459 22.065 95.1006 22.7548V26.2548C94.3135 24.0974 92.7208 23.0233 90.3271 23.0233C88.4612 23.0233 86.9843 23.7456 85.8916 25.1946C84.8915 26.4956 84.3961 28.0974 84.3961 29.9956C84.3961 31.8937 84.91 33.565 85.9425 34.9168C87.0815 36.4122 88.6279 37.1576 90.5725 37.1576C92.5171 37.1576 94.0635 36.3243 95.4941 34.653V36.2178H95.4802Z" fill="white"></path><path d="M107.998 38.1715H104.308C104.901 38.0603 105.202 37.3752 105.202 36.1205V30.6668C105.202 28.7872 104.484 27.8428 103.049 27.8428C102.257 27.8428 101.525 28.1529 100.836 28.7733C100.15 29.3937 99.8123 30.1205 99.8123 30.9585V36.1205C99.8123 37.3752 100.141 38.0603 100.808 38.1715H97.0204C97.7103 38.0603 98.0529 37.3613 98.0529 36.0742V25.0002C98.0529 24.0835 97.9418 23.4585 97.7196 23.1205C97.5436 22.8474 97.238 22.7085 96.8075 22.7085H96.5898L99.8123 21.3335V28.6205C100.178 28.0418 100.761 27.5372 101.562 27.1113C102.359 26.6853 103.118 26.4724 103.845 26.4724C104.808 26.4724 105.572 26.7918 106.128 27.4261C106.683 28.0603 106.961 28.9816 106.961 30.19V36.0789C106.961 37.3659 107.308 38.065 108.003 38.1761L107.998 38.1715Z" fill="white"></path><path d="M119.636 37.2775L117.826 38.634C117.345 38.5553 116.923 38.333 116.571 37.9719C116.22 37.6108 115.997 37.2266 115.919 36.8238C115.632 37.3701 115.15 37.7914 114.483 38.0877C113.817 38.384 113.094 38.5321 112.326 38.5321C111.409 38.5321 110.645 38.296 110.034 37.8192C109.423 37.3423 109.117 36.6988 109.117 35.8793C109.117 33.921 111.316 32.4488 115.71 31.4673V30.2127C115.71 28.4117 114.942 27.5136 113.414 27.5136C112.641 27.5136 112.043 27.6803 111.622 28.009C111.201 28.3377 110.997 28.7266 110.997 29.1803C110.997 29.7775 111.201 30.1386 111.603 30.2636L109.645 31.0599C109.437 30.6756 109.33 30.2312 109.33 29.7312C109.33 28.8793 109.701 28.1386 110.441 27.5136C111.293 26.8238 112.428 26.4766 113.844 26.4766C115.034 26.4766 115.956 26.8006 116.599 27.4442C117.178 28.0414 117.47 28.8516 117.47 29.884V35.0969C117.47 36.5923 118.062 37.3423 119.252 37.3423C119.331 37.3423 119.46 37.3284 119.636 37.2914V37.2775ZM115.71 34.9858V32.4534C112.52 33.1942 110.932 34.2219 110.932 35.5414C110.932 36.1062 111.122 36.5506 111.497 36.8793C111.877 37.208 112.354 37.3747 112.937 37.3747C113.645 37.3747 114.284 37.1432 114.854 36.6756C115.428 36.208 115.71 35.6479 115.71 34.9858Z" fill="white"></path><path d="M137.081 38.1714H133.363C133.997 38.0603 134.312 37.3612 134.312 36.0741V30.8658C134.312 28.8566 133.669 27.8519 132.377 27.8519C131.571 27.8519 130.858 28.1621 130.238 28.7825C129.617 29.4028 129.307 30.1204 129.307 30.9399V36.0788C129.307 37.3843 129.636 38.0834 130.298 38.176H126.603C127.233 38.0649 127.548 37.3658 127.548 36.0788V30.8704C127.548 28.8612 126.904 27.8566 125.617 27.8566C124.83 27.8566 124.122 28.1667 123.497 28.7871C122.871 29.4075 122.557 30.1251 122.557 30.9445V36.0834C122.557 37.3704 122.876 38.0695 123.52 38.1806H119.732C120.427 38.0695 120.774 37.3751 120.774 36.1066V29.9306C120.774 29.0464 120.668 28.4538 120.459 28.1436C120.297 27.8843 120.006 27.7593 119.589 27.7593H119.32L122.557 26.4121V28.676C122.973 28.0001 123.566 27.463 124.339 27.0603C125.061 26.676 125.779 26.4816 126.483 26.4816C127.14 26.4816 127.705 26.6806 128.182 27.0741C128.654 27.4677 128.955 28.0047 129.085 28.6806C129.469 28.0695 130.025 27.5556 130.747 27.1343C131.534 26.6991 132.33 26.4816 133.131 26.4816C134.094 26.4816 134.84 26.8704 135.372 27.639C135.84 28.3334 136.071 29.2547 136.071 30.4121V36.0834C136.071 37.3704 136.409 38.0695 137.081 38.1806V38.1714Z" fill="white"></path><path d="M148.055 32.0231C148.055 33.7777 147.597 35.2731 146.68 36.5138C145.68 37.8518 144.379 38.5184 142.768 38.5184C141.819 38.5184 141.045 38.4073 140.448 38.1805C139.856 37.9536 139.508 37.8379 139.411 37.8379C139.087 37.8379 138.744 38.0647 138.374 38.5184V24.9351C138.374 24.0184 138.263 23.3842 138.036 23.0277C137.86 22.7546 137.554 22.6203 137.124 22.6203H136.906L140.18 21.3379V28.5509C140.569 27.9397 141.106 27.4397 141.8 27.0555C142.49 26.6712 143.189 26.4768 143.897 26.4768C145.124 26.4768 146.111 26.9583 146.87 27.9259C147.662 28.9397 148.055 30.3055 148.055 32.0277V32.0231ZM146.18 32.5277C146.18 31.2407 145.939 30.1712 145.462 29.3194C144.935 28.3564 144.194 27.8703 143.235 27.8703C142.421 27.8703 141.708 28.2129 141.101 28.8981C140.494 29.5833 140.189 30.3425 140.189 31.1759V35.2777C140.189 36.662 141.059 37.3518 142.805 37.3518C143.828 37.3518 144.661 36.8518 145.3 35.8564C145.893 34.9397 146.189 33.8286 146.189 32.5277H146.18Z" fill="white"></path><path d="M158.928 34.9168C158.252 37.3243 156.803 38.5326 154.585 38.5326C153.006 38.5326 151.756 37.94 150.821 36.7456C149.983 35.6668 149.566 34.3196 149.566 32.6946C149.566 30.9261 150.02 29.4493 150.932 28.2548C151.84 27.065 153.03 26.4678 154.493 26.4678C155.877 26.4678 156.956 27.0696 157.724 28.278C158.4 29.3381 158.761 30.6807 158.812 32.3057H151.326C151.326 33.7548 151.715 34.9215 152.483 35.8011C153.206 36.6206 154.108 37.0326 155.187 37.0326C156.618 37.0326 157.868 36.3243 158.928 34.9076V34.9168ZM156.803 31.3243C156.803 30.3289 156.618 29.4817 156.247 28.7918C155.812 27.94 155.164 27.5141 154.307 27.5141C153.451 27.5141 152.692 27.9307 152.122 28.7687C151.636 29.477 151.372 30.3289 151.321 31.3243H156.803Z" fill="white"></path><path d="M167.457 29.2452C166.994 28.5368 166.397 28.185 165.674 28.185C164.906 28.185 164.239 28.6109 163.679 29.4628C163.114 30.3146 162.836 31.3933 162.836 32.6942V36.0461C162.836 37.347 163.17 38.0554 163.841 38.1665H160.054C160.748 38.0554 161.095 37.347 161.095 36.0461V29.6063C161.095 29.0091 161.045 28.5924 160.947 28.3517C160.804 27.935 160.498 27.722 160.026 27.722H159.785L162.832 26.3979V29.435C163.1 28.6618 163.554 27.9859 164.193 27.4072C164.892 26.7776 165.628 26.4628 166.411 26.4628C166.758 26.4628 167.11 26.5507 167.457 26.7267V29.2359V29.2452Z" fill="white"></path><path d="M175.893 35.2224C175.893 36.2363 175.536 37.0418 174.819 37.6344C174.101 38.2317 173.12 38.528 171.865 38.528C170.513 38.528 169.443 38.2131 168.656 37.5881V34.2872C169.073 36.3752 170.193 37.4168 172.013 37.4168C172.592 37.4168 173.092 37.2965 173.508 37.0557C174.022 36.7502 174.282 36.3104 174.282 35.7317C174.282 35.0233 173.805 34.3798 172.856 33.8011C171.971 33.3011 171.087 32.8057 170.198 32.3057C169.249 31.6159 168.772 30.7687 168.772 29.7733C168.772 28.778 169.119 28.0187 169.809 27.3983C170.499 26.778 171.406 26.4678 172.536 26.4678C173.564 26.4678 174.471 26.727 175.263 27.2409V30.1854C175.101 29.315 174.731 28.6391 174.152 28.1576C173.638 27.7548 173.05 27.5511 172.388 27.5511C171.809 27.5511 171.328 27.7039 170.939 28.0094C170.504 28.3335 170.286 28.7409 170.286 29.2409C170.286 29.7409 170.443 30.1391 170.754 30.4493C171.068 30.7548 171.721 31.1715 172.721 31.7039C173.828 32.2826 174.587 32.7548 174.99 33.1252C175.587 33.6854 175.884 34.3891 175.884 35.2224H175.893Z" fill="white"></path><path d="M192.633 32.3055C192.633 33.9305 192.175 35.3286 191.258 36.4999C190.212 37.8518 188.79 38.5277 186.989 38.5277C185.188 38.5277 183.915 37.9074 182.938 36.6712C182.086 35.5786 181.66 34.2592 181.66 32.7175C181.66 31.0925 182.119 29.6898 183.035 28.4999C184.082 27.1481 185.489 26.4722 187.258 26.4722C189.026 26.4722 190.355 27.0925 191.337 28.3286C192.203 29.4212 192.638 30.7499 192.638 32.3101L192.633 32.3055ZM190.73 32.8148C190.73 31.4953 190.415 30.3379 189.79 29.3379C189.05 28.199 188.068 27.6249 186.846 27.6249C185.753 27.6249 184.901 28.1388 184.29 29.1712C183.771 30.0231 183.517 31.0231 183.517 32.162C183.517 33.4953 183.841 34.662 184.484 35.662C185.221 36.8055 186.207 37.3749 187.429 37.3749C188.508 37.3749 189.36 36.8611 189.985 35.8333C190.485 34.9629 190.73 33.9583 190.73 32.8194V32.8148Z" fill="white"></path><path d="M199.997 28.0417H197.131V35.9769C197.131 37.3103 197.469 38.0417 198.145 38.1714H194.307C195.02 38.0603 195.377 37.3288 195.377 35.9769V28.0417H193.367V26.8566H195.377V26.3288C195.377 24.8519 195.691 23.6853 196.316 22.8241C196.942 21.9677 197.807 21.5371 198.914 21.5371C199.317 21.5371 199.678 21.5788 199.997 21.6575V23.801C199.641 23.139 199.113 22.8103 198.409 22.8103C197.557 22.8103 197.131 23.6436 197.131 25.3149V26.8566H199.997V28.0417Z" fill="white"></path><path d="M95.4802 57.2593C94.1144 58.8195 92.3457 59.5972 90.1743 59.5972C87.6463 59.5972 85.6647 58.7593 84.2156 57.088C82.9145 55.5926 82.2617 53.7361 82.2617 51.5139C82.2617 49.1667 82.9701 47.1713 84.3869 45.5324C85.9796 43.6852 88.1094 42.7593 90.7808 42.7593C92.4059 42.7593 93.8459 43.1065 95.1006 43.8009V47.3009C94.3135 45.1482 92.7208 44.0695 90.3271 44.0695C88.4612 44.0695 86.9843 44.7917 85.8916 46.2408C84.8915 47.5417 84.3961 49.1435 84.3961 51.0417C84.3961 52.9398 84.91 54.6111 85.9425 55.963C87.0815 57.4584 88.6279 58.2037 90.5725 58.2037C92.5171 58.2037 94.0635 57.3704 95.4941 55.6991V57.2639L95.4802 57.2593Z" fill="white"></path><path d="M107.758 53.3472C107.758 54.9722 107.3 56.3704 106.383 57.5463C105.337 58.8982 103.915 59.5695 102.114 59.5695C100.313 59.5695 99.0446 58.9491 98.063 57.713C97.2111 56.6204 96.7852 55.3009 96.7852 53.7593C96.7852 52.1343 97.2435 50.7269 98.1603 49.5371C99.2066 48.1852 100.614 47.5093 102.383 47.5093C104.151 47.5093 105.48 48.1296 106.462 49.3658C107.332 50.4583 107.763 51.7824 107.763 53.3426L107.758 53.3472ZM105.855 53.8565C105.855 52.5371 105.54 51.3796 104.915 50.3796C104.175 49.2361 103.193 48.6667 101.971 48.6667C100.878 48.6667 100.026 49.1806 99.415 50.2083C98.901 51.0602 98.6418 52.0602 98.6418 53.1991C98.6418 54.5324 98.9659 55.6991 99.6048 56.6991C100.346 57.8426 101.327 58.4121 102.549 58.4121C103.628 58.4121 104.48 57.8982 105.105 56.8704C105.605 56.0046 105.855 54.9954 105.855 53.8565Z" fill="white"></path><path d="M125.999 59.2129H122.286C122.92 59.1017 123.235 58.398 123.235 57.111V51.898C123.235 49.8888 122.591 48.8841 121.299 48.8841C120.494 48.8841 119.781 49.1943 119.16 49.8147C118.54 50.4351 118.23 51.1527 118.23 51.9721V57.111C118.23 58.4119 118.558 59.1156 119.221 59.2129H115.53C116.16 59.1017 116.475 58.398 116.475 57.111V51.898C116.475 49.8888 115.831 48.8841 114.544 48.8841C113.753 48.8841 113.049 49.1943 112.424 49.8147C111.794 50.4351 111.479 51.1527 111.479 51.9721V57.111C111.479 58.398 111.799 59.0971 112.442 59.2129H108.655C109.349 59.1017 109.697 58.4073 109.697 57.1388V50.9629C109.697 50.0786 109.59 49.4814 109.382 49.1758C109.22 48.9166 108.928 48.7916 108.507 48.7916H108.238L111.475 47.4443V49.7082C111.891 49.0323 112.489 48.4906 113.257 48.0879C113.979 47.699 114.692 47.5092 115.401 47.5092C116.058 47.5092 116.628 47.7082 117.1 48.1017C117.577 48.4953 117.873 49.0323 118.003 49.7082C118.387 49.0971 118.943 48.5832 119.665 48.1619C120.452 47.7267 121.244 47.5092 122.049 47.5092C123.012 47.5092 123.758 47.8934 124.29 48.6666C124.758 49.3564 124.989 50.2823 124.989 51.4397V57.111C124.989 58.398 125.327 59.0971 125.999 59.2129Z" fill="white"></path><path d="M144.483 59.2129H140.765C141.4 59.1017 141.714 58.398 141.714 57.111V51.898C141.714 49.8888 141.071 48.8841 139.779 48.8841C138.973 48.8841 138.26 49.1943 137.64 49.8147C137.02 50.4351 136.709 51.1527 136.709 51.9721V57.111C136.709 58.4119 137.038 59.1156 137.7 59.2129H134.006C134.635 59.1017 134.95 58.398 134.95 57.111V51.898C134.95 49.8888 134.307 48.8841 133.019 48.8841C132.232 48.8841 131.524 49.1943 130.894 49.8147C130.269 50.4351 129.954 51.1527 129.954 51.9721V57.111C129.954 58.398 130.274 59.0971 130.917 59.2129H127.13C127.825 59.1017 128.172 58.4073 128.172 57.1388V50.9629C128.172 50.0786 128.07 49.4814 127.857 49.1758C127.695 48.9166 127.403 48.7916 126.987 48.7916H126.723L129.959 47.4443V49.7082C130.376 49.0323 130.973 48.4906 131.742 48.0879C132.464 47.699 133.181 47.5092 133.885 47.5092C134.543 47.5092 135.107 47.7082 135.584 48.1017C136.057 48.4953 136.358 49.0323 136.487 49.7082C136.872 49.0971 137.422 48.5832 138.149 48.1619C138.936 47.7267 139.728 47.5092 140.534 47.5092C141.497 47.5092 142.242 47.8934 142.775 48.6666C143.238 49.3564 143.474 50.2823 143.474 51.4397V57.111C143.474 58.398 143.812 59.0971 144.483 59.2129Z" fill="white"></path><path d="M154.6 55.9584C153.924 58.3658 152.475 59.5695 150.257 59.5695C148.678 59.5695 147.424 58.9769 146.493 57.7871C145.66 56.7084 145.238 55.3565 145.238 53.7361C145.238 51.9676 145.692 50.4861 146.599 49.2963C147.507 48.1065 148.697 47.5093 150.155 47.5093C151.54 47.5093 152.618 48.1111 153.387 49.3195C154.063 50.3796 154.424 51.7269 154.47 53.3519H146.988C146.988 54.7963 147.377 55.963 148.146 56.8472C148.868 57.6667 149.771 58.0787 150.85 58.0787C152.28 58.0787 153.531 57.3704 154.591 55.9584H154.6ZM152.475 52.3658C152.475 51.3704 152.29 50.5232 151.919 49.8333C151.484 48.9815 150.836 48.5556 149.979 48.5556C149.123 48.5556 148.363 48.9722 147.799 49.8102C147.317 50.5185 147.049 51.3704 146.998 52.3658H152.48H152.475Z" fill="white"></path><path d="M163.008 50.2872C162.541 49.5789 161.948 49.227 161.226 49.227C160.457 49.227 159.791 49.6529 159.23 50.5048C158.67 51.3566 158.388 52.4353 158.388 53.7363V57.0881C158.388 58.389 158.721 59.0974 159.388 59.2131H155.601C156.295 59.102 156.642 58.3937 156.642 57.0881V50.6483C156.642 50.0511 156.591 49.6344 156.494 49.3937C156.346 48.977 156.04 48.7687 155.573 48.7687H155.332L158.383 47.4492V50.4863C158.652 49.7131 159.105 49.0372 159.74 48.4585C160.439 47.8288 161.175 47.514 161.957 47.514C162.305 47.514 162.657 47.602 163.004 47.7826V50.2918L163.008 50.2872Z" fill="white"></path><path d="M172.571 55.9072C172.298 57.097 171.765 58.009 170.978 58.6526C170.256 59.2637 169.418 59.5692 168.469 59.5692C166.89 59.5692 165.658 59.0229 164.779 57.9303C163.973 56.9165 163.57 55.6248 163.57 54.0507C163.57 52.1387 164.089 50.5692 165.126 49.347C166.163 48.1248 167.446 47.5137 168.973 47.5137C169.936 47.5137 170.737 47.7961 171.363 48.3563C172.006 48.9674 172.353 49.7822 172.4 50.7961L170.492 51.6387C170.557 51.3979 170.589 51.1387 170.589 50.8655C170.589 50.222 170.39 49.7081 169.987 49.3192C169.585 48.935 169.085 48.7405 168.492 48.7405C167.543 48.7405 166.77 49.1572 166.163 49.9952C165.561 50.8331 165.26 51.9072 165.26 53.2266C165.26 54.5461 165.575 55.6942 166.2 56.6294C166.89 57.6572 167.821 58.1711 168.997 58.1711C170.33 58.1711 171.52 57.4165 172.566 55.9026L172.571 55.9072Z" fill="white"></path><path d="M183.088 55.9584C182.412 58.3658 180.963 59.5695 178.745 59.5695C177.167 59.5695 175.912 58.9769 174.981 57.7871C174.143 56.7084 173.727 55.3565 173.727 53.7361C173.727 51.9676 174.18 50.4861 175.088 49.2963C175.995 48.1065 177.181 47.5093 178.648 47.5093C180.028 47.5093 181.107 48.1111 181.88 49.3195C182.556 50.3796 182.917 51.7269 182.963 53.3519H175.481C175.481 54.7963 175.87 55.963 176.639 56.8472C177.361 57.6667 178.264 58.0787 179.343 58.0787C180.773 58.0787 182.023 57.3704 183.084 55.9584H183.088ZM180.963 52.3658C180.963 51.3704 180.778 50.5232 180.408 49.8333C179.972 48.9815 179.324 48.5556 178.468 48.5556C177.611 48.5556 176.852 48.9722 176.287 49.8102C175.801 50.5185 175.537 51.3704 175.486 52.3658H180.968H180.963Z" fill="white"></path><path d="M66.7322 33.9215C64.1487 30.8845 60.6948 29.1206 56.3704 28.6391C59.6252 28.0373 62.306 26.366 64.4126 23.6253C66.5192 20.8845 67.5749 17.8012 67.5749 14.3706C67.5749 10.454 66.2507 7.17155 63.6024 4.5234C60.5929 1.51877 56.4074 0.00488281 51.0506 0.00488281H20.6225C23.5672 0.546549 25.0441 3.37988 25.0441 8.49562V48.0836C23.9978 40.6715 17.6269 34.9725 9.92734 34.9725L-0.00390625 34.954L0.0099836 44.8891C0.0099836 53.3243 6.84842 60.1669 15.2842 60.1669H25.0488V76.8938C24.7339 74.0373 22.3125 71.8151 19.3724 71.8151L15.6592 71.8058V75.5188C15.6638 78.6762 18.2196 81.2317 21.3726 81.2317H25.0488L25.0627 142.968L27.5582 143.005V81.2317H31.239C34.392 81.2317 36.9524 78.6762 36.9524 75.5234V71.8104L33.2438 71.8197C30.276 71.8197 27.8406 74.079 27.5582 76.9725V60.1669H53.5507C58.8983 60.1669 63.1672 58.5419 66.3572 55.2873C69.1861 52.3382 70.5936 48.7503 70.5936 44.5373C70.5936 40.3243 69.3065 36.9678 66.723 33.9262L66.7322 33.9215ZM50.0598 43.829C50.0598 51.3614 43.9529 57.4725 36.4199 57.4725H27.5767L27.5675 48.616C27.5675 41.0836 33.6744 34.9725 41.2073 34.9725L50.0783 34.9586L50.0644 43.829H50.0598Z" fill="white"></path></g><defs><clipPath id="clip0_289_6787"><rect width="200" height="143" fill="white"></rect></clipPath></defs></svg>