<?xml version="1.0" encoding="UTF-8"?>
<svg xmlns="http://www.w3.org/2000/svg" viewBox="0 0 987.01 291.88">
  <defs>
    <style>.cls-1{fill:#fff;}.cls-2{fill:#0865fe;}</style>
  </defs>
  <g id="Layer_2" data-name="Layer 2">
    <g id="Layer_1-2" data-name="Layer 1">
      <circle class="cls-1" cx="145.94" cy="145.94" r="145.94" transform="translate(-60.45 145.94) rotate(-45)"></circle>
      <path class="cls-2" d="M209.66,216.05c0,16.55-11.89,28.56-28.48,28.61-23.07.07-46.12,0-69.18,0-28.5,0-27.68-30-29.49-30H72a147.91,147.91,0,0,1-3.89-17.43h33.39c-3.15,34.59,101,49.68,90.4-20.37-.24-1.59.08-2.28,0-4.38H66.12v-.72A157.85,157.85,0,0,1,67,155H209.66v3.39Q209.66,187.21,209.66,216.05Z"></path>
      <path class="cls-2" d="M209.62,122.17c-.4-14.31-8.05-27.7-20.72-34.37-2.28-1.21-3.05-2.42-3-4.79q.06-10.8,0-21.61,0-10.18,0-20.36v0l-3.65-3.65h-13c-.12,2.45-.23,4.68-.33,7H124.69c-.12-2.47-.23-4.69-.32-6.89H111.54c-1.51,1.5-2.35,2.35-3.86,3.86,0,9.86,0,19.74,0,29.61,0,3.9,0,7.8,0,11.7,0,2.92-.81,4.38-4.46,5.85a28.22,28.22,0,0,0-17,20.85c-.8,4.09-2,4.91-5,4.88l-4.16,0a141.41,141.41,0,0,0-5.82,17.25h30.21v-7.17c0-15,10.79-25,26.35-24a277.3,277.3,0,0,0,36.35,0c17.33-1.13,27.82,8.43,27.82,25v11.28h17.6C209.66,131.58,209.75,126.89,209.62,122.17ZM169.07,82.39H151.71s-2.19-9.65,6.07-9.65h.5v-.52a8.74,8.74,0,0,0-8.74-8.74H147.3a8.75,8.75,0,0,0-8.75,8.74v.32c.5.11,7.34-.32,7.34,6.44a14.11,14.11,0,0,1-.46,3.37H124.52c0-6.37,0-12.56,0-18.75,0-1.13-.1-2.37-.16-3.59-.08-2.07,0-4.05,1-5.15,1.34-1.52,5.52-.61,8.44-.62h8.28c7.74,0,15.47,0,23.2-.05h.63a3.43,3.43,0,0,1,2.6.67,3.19,3.19,0,0,1,.62,2.4C169,65.53,169.07,73.81,169.07,82.39Z"></path>
      <path class="cls-1" d="M406.63,182.67c0-22.78-58.76-13.36-58.76-54.64,0-32.92,37.63-37.51,66.17-31.26a13.28,13.28,0,0,1,10.45,11.91l1.66,20.89h-1.37c-6.68-15.93-51.73-21.41-51.73-3.25C373.05,146,432,139.68,432,181c0,34.33-43.15,37.67-73,30a13.16,13.16,0,0,1-9.8-11.76l-1.69-21.2h1.37C356.26,195.18,406.63,202.71,406.63,182.67Z"></path>
      <path class="cls-1" d="M430.78,97V95.65h61.39a26.51,26.51,0,0,1,26.47,25.08l.36,6.61h-1.37c-3.43-8-13.54-14.56-26.9-14.56H480.46A15.42,15.42,0,0,0,465,128.2h0a13.7,13.7,0,0,0,13.7,13.7h0c13.36,0,18.33-1.37,21.76-9.42h1.37v36.66H500.5c-3.43-8-8.4-9.42-21.76-9.42h0a13.7,13.7,0,0,0-13.7,13.7h0a22.27,22.27,0,0,0,22.27,22.27h3.42c13.36,0,23.47-6.51,26.9-14.56H519l-.36,6.62a26.5,26.5,0,0,1-26.47,25.07H430.78v-1.37c8.05-3.43,9.42-8.39,9.42-21.76V118.78C440.2,105.42,438.83,100.45,430.78,97Z"></path>
      <path class="cls-1" d="M521.74,96.24V94.86h61.39a26.51,26.51,0,0,1,26.47,25.08l.36,6.61h-1.37c-3.43-8-13.53-14.56-26.9-14.56H571.42A15.42,15.42,0,0,0,556,127.41h0a13.7,13.7,0,0,0,13.7,13.7h0c13.36,0,18.33-1.37,21.76-9.42h1.37v36.66h-1.37c-3.43-8-8.4-9.42-21.76-9.42h0a13.7,13.7,0,0,0-13.7,13.7h0a22.27,22.27,0,0,0,22.27,22.27h3.42c13.37,0,23.47-6.51,26.9-14.56H610L609.6,187A26.5,26.5,0,0,1,583.13,212H521.74v-1.37c8-3.43,9.42-8.39,9.42-21.75V118C531.16,104.63,529.79,99.66,521.74,96.24Z"></path>
      <path class="cls-1" d="M914.7,182.67C914.7,159.89,856,169.31,856,128c0-32.92,37.62-37.51,66.16-31.26a13.31,13.31,0,0,1,10.46,11.91l1.66,20.89h-1.37c-6.68-15.93-51.73-21.41-51.73-3.25,0,19.7,58.92,13.36,58.92,54.64,0,34.33-43.14,37.67-73,30a13.19,13.19,0,0,1-9.8-11.76l-1.69-21.2H857C864.34,195.18,914.7,202.71,914.7,182.67Z"></path>
      <path class="cls-1" d="M846.86,185.89V118a26.5,26.5,0,0,0-26.5-26.5h-9.81v1.37c3.76.68,6,5.48,1.37,12l-56.53,81.19a19.7,19.7,0,0,1-5.83,5.55V172.56c0-8.39.86-12.67,6-14.73v-1.37h-42v1.37c7.71,1.71,12.85,7.19,12.85,21.75v13.54a78.34,78.34,0,0,1-11.31.85q-38,0-38-38c0-26.38,10.1-40.09,37.68-40.09,11.48,0,26,3.77,31,15.25h1.37L744.77,101c-11.48-4.11-19.53-5.82-31.86-5.82-39.4,0-61,21.24-61,60.81,0,38.37,23.81,58.58,61.15,58.58,9.68,0,21.62-2.64,31.62-5.43,9,1.93,19.61-1.29,26.28-10.88l6.43-8.19a26.5,26.5,0,0,1,20.84-10.14h22.92l-.17,7c-.35,10.79-3.77,17.47-11,20.38v1.37h46.42V207.3C848.23,204.05,846.86,198.73,846.86,185.89Zm-27.1-23.34a9.43,9.43,0,0,0,.88-2.94,23.13,23.13,0,0,0-.85-6.23,42.1,42.1,0,0,0-3.54-7.36c-2.83,5.19-6.38,10.12-3.62,16.55-4.24-2.75-5.89-7.14-4.8-12.59,1.06-5.3,3.61-9.93,6.38-14.46.59-1,1.23-1.92,2-3.07.61,1,1.17,1.78,1.69,2.63,2.89,4.66,5.56,9.43,6.65,14.91S824,159.9,819.76,162.55Z"></path>
      <path class="cls-1" d="M960.45,199.15a13.28,13.28,0,1,1,13.28,13.28A13.29,13.29,0,0,1,960.45,199.15Zm13.28,10.28a10.28,10.28,0,1,0-10.08-10.28C963.65,205,967.81,209.43,973.73,209.43Zm-6.28-3.36c1.2-.48,1.16-1.56,1.16-2.72v-8.88c0-1.16,0-2.24-1.16-2.76v-.16h8c3,0,4.6,1.64,4.6,4.64a3.88,3.88,0,0,1-2.72,3.88,3.4,3.4,0,0,1,1,1.48l1,3.2a2.17,2.17,0,0,0,1.44,1.32v.2h-5.16v-.2a1,1,0,0,0,.64-1,4.29,4.29,0,0,0-.24-1.16l-.6-1.8c-.28-.84-.48-1.28-1.44-1.28h-2.28v2.52c0,1.16,0,2.24,1.2,2.72v.2h-5.48Zm7.28-7.64c1.52,0,2.44-.6,2.44-2.24a2,2,0,0,0-2.28-2.24h-3.16v4.48Z"></path>
    </g>
  </g>
</svg>
